<svg height="150px" viewBox="0 0 32 32" width="150px" xmlns="http://www.w3.org/2000/svg" id="fi_8287974"><g id="Filled" fill="rgb(0,0,0)"><path d="m29.77 6.23a2.51 2.51 0 0 0 -1.77-.73h-24a2.49 2.49 0 0 0 -2.5 2.5v16a2.55 2.55 0 0 0 .73 1.77 2.51 2.51 0 0 0 1.77.73h24a2.51 2.51 0 0 0 1.77-.73 2.55 2.55 0 0 0 .73-1.77v-16a2.52 2.52 0 0 0 -.73-1.77zm-.27 13.77v2 2a1.5 1.5 0 0 1 -1.5 1.5h-21.79l-3.71-3.71v-13.79a1.52 1.52 0 0 1 .44-1.06 1.5 1.5 0 0 1 1.06-.44h21.79l3.71 3.71z" fill-rule="evenodd"></path><path d="m15 23.5h-9a.5.5 0 0 1 -.5-.5.5.5 0 0 1 .5-.5h9a.5.5 0 0 1 .5.5.5.5 0 0 1 -.5.5z"></path><path d="m26.5 21v2a.5.5 0 0 1 -.5.5h-7a.5.5 0 0 1 -.5-.5v-2a.5.5 0 0 1 .5-.5h7a.5.5 0 0 1 .5.5z"></path><path d="m26 9.5h-7a.5.5 0 0 1 -.5-.5.5.5 0 0 1 .5-.5h7a.5.5 0 0 1 .5.5.5.5 0 0 1 -.5.5z"></path><path d="m26 12.5h-7a.5.5 0 0 1 -.5-.5.5.5 0 0 1 .5-.5h7a.5.5 0 0 1 .5.5.5.5 0 0 1 -.5.5z"></path><path d="m26 15.5h-7a.5.5 0 0 1 -.5-.5.5.5 0 0 1 .5-.5h7a.5.5 0 0 1 .5.5.5.5 0 0 1 -.5.5z"></path><path d="m26 18.5h-7a.5.5 0 0 1 -.5-.5.5.5 0 0 1 .5-.5h7a.5.5 0 0 1 .5.5.5.5 0 0 1 -.5.5z"></path><path d="m10.5 8.5a6 6 0 1 0 6 6 6 6 0 0 0 -6-6zm4.11 8.85a5.47 5.47 0 0 0 -2.23-1.51 3 3 0 1 0 -3.76 0 5.47 5.47 0 0 0 -2.23 1.51 5 5 0 1 1 8.22 0z"></path></g></svg>